<svg id="Layer_1" data-name="Layer 1" xmlns="http://www.w3.org/2000/svg" viewBox="0 0 1167.99 589.19"><defs><style>.cls-1,.cls-2,.cls-4,.cls-5,.cls-6{fill:none;}.cls-1{stroke:#03045e;}.cls-1,.cls-2,.cls-3,.cls-4,.cls-5,.cls-6{stroke-miterlimit:10;}.cls-1,.cls-3,.cls-4,.cls-5,.cls-6{stroke-width:16px;}.cls-2,.cls-4{stroke:#0077b6;}.cls-2{stroke-width:18px;}.cls-3{stroke:#000;}.cls-5{stroke:#00b4d8;}.cls-6{stroke:#90e0ef;}.cls-7{fill:#ffb0bc;}</style></defs><path class="cls-1" d="M944.87,680.86H463.4a45.86,45.86,0,0,0-45.86,45.85h0a39.85,39.85,0,0,0,39.86,39.86h307" transform="translate(-397.17 -669.66)"/><path class="cls-1" d="M956.1,1149.7c-135.28,0-244.94-105-244.94-234.42S820.82,680.86,956.1,680.86L955.24,752C861,752,784.59,825.08,784.59,915.28S861,1078.6,955.24,1078.6Z" transform="translate(-397.17 -669.66)"/><path class="cls-2" d="M1005.1,1149.7c135.27,0,244.93-105,244.93-234.42S1140.37,680.86,1005.1,680.86l0,71.09c94.24,0,170.65,73.13,170.65,163.33s-76.41,163.32-170.65,163.32Z" transform="translate(-397.17 -669.66)"/><ellipse class="cls-3" cx="489.95" cy="185.46" rx="13.28" ry="35.74"/><ellipse class="cls-3" cx="679.95" cy="185.46" rx="13.28" ry="35.74"/><path class="cls-4" d="M1205,779.8l98.65,122.45L1462.76,1102a39.85,39.85,0,0,1-6.34,56,45.86,45.86,0,0,1-64.44-7.3L1269.62,997.09l-24.94-32.88" transform="translate(-397.17 -669.66)"/><path class="cls-4" d="M1557.16,1205V723.52a45.86,45.86,0,0,0-45.86-45.86h0a39.87,39.87,0,0,0-39.86,39.86v330.63" transform="translate(-397.17 -669.66)"/><path class="cls-5" d="M1557.16,1205a45.86,45.86,0,0,1-45.86,45.85H1005.1" transform="translate(-397.17 -669.66)"/><path class="cls-6" d="M405.17,1205A45.86,45.86,0,0,0,451,1250.85H957.24" transform="translate(-397.17 -669.66)"/><ellipse class="cls-7" cx="765.01" cy="247.61" rx="34.62" ry="24.05"/><ellipse class="cls-7" cx="401.83" cy="247.61" rx="34.62" ry="24.05"/><path class="cls-2" d="M1642.83,1378" transform="translate(-397.17 -669.66)"/></svg>